<svg width="12" height="12" viewBox="0 0 12 12" fill="none" xmlns="http://www.w3.org/2000/svg">
<g clip-path="url(#clip0_15_36)">
<path d="M6 7.125C6.31054 7.125 6.5625 6.87305 6.5625 6.5625V3.5625C6.5625 3.25313 6.31172 3 6 3C5.68828 3 5.4375 3.25313 5.4375 3.5625V6.5625C5.4375 6.87422 5.69062 7.125 6 7.125ZM6 7.90078C5.59312 7.90078 5.26312 8.23078 5.26312 8.63766C5.26406 9.04453 5.59219 9.375 6 9.375C6.40781 9.375 6.73687 9.045 6.73687 8.63812C6.73594 8.23125 6.40781 7.90078 6 7.90078Z" fill="#314444"/>
<path opacity="0.4" d="M6 0C2.68594 0 0 2.68594 0 6C0 9.31406 2.68594 12 6 12C9.31406 12 12 9.31406 12 6C12 2.68594 9.31406 0 6 0ZM5.4375 3.5625C5.4375 3.25313 5.69063 3 6 3C6.30937 3 6.5625 3.25195 6.5625 3.5625V6.5625C6.5625 6.87305 6.31055 7.125 6 7.125C5.68945 7.125 5.4375 6.87422 5.4375 6.5625V3.5625ZM6 9.375C5.59312 9.375 5.26312 9.045 5.26312 8.63812C5.26312 8.23125 5.59289 7.90125 6 7.90125C6.40711 7.90125 6.73688 8.23125 6.73688 8.63812C6.73594 9.04453 6.40781 9.375 6 9.375Z" fill="#314444"/>
</g>
<defs>
<clipPath id="clip0_15_36">
<rect width="12" height="12" fill="white"/>
</clipPath>
</defs>
</svg>
