<svg width="16" height="16" viewBox="0 0 16 16" fill="none" xmlns="http://www.w3.org/2000/svg">
<path d="M13.9406 12.7375C13.8531 12.9 13.6844 13 13.5 13H2.56281C2.37466 13 2.2025 12.8944 2.11719 12.7266C2.03188 12.5588 2.04797 12.3575 2.15888 12.2053L4.34638 9.20531C4.44063 9.075 4.59063 9 4.75 9C4.90938 9 5.05988 9.07628 5.15406 9.20544L6.16844 10.5964L9.08406 6.2495C9.17813 6.08437 9.33438 6 9.5 6C9.66563 6 9.82344 6.0835 9.91594 6.22266L13.9159 12.2227C14.0188 12.375 14.0281 12.5719 13.9406 12.7375Z" fill="#111827"/>
<path opacity="0.4" d="M14.5 1H1.5C0.671562 1 0 1.67156 0 2.5V13.5C0 14.3281 0.671562 15 1.5 15H14.5C15.3284 15 16 14.3284 16 13.5V2.5C16 1.67156 15.3281 1 14.5 1ZM3.47187 3C4.30031 3 4.97188 3.67156 4.97188 4.5C4.97188 5.32844 4.32812 6 3.47187 6C2.61562 6 1.97187 5.32844 1.97187 4.5C1.97187 3.67156 2.67125 3 3.47187 3ZM13.9406 12.7375C13.8531 12.9 13.6844 13 13.5 13H2.56281C2.37466 13 2.2025 12.8944 2.11719 12.7266C2.03187 12.5588 2.04797 12.3575 2.15887 12.2053L4.34637 9.20531C4.44062 9.075 4.59063 9 4.75 9C4.90937 9 5.05987 9.07628 5.15406 9.20544L6.16844 10.5964L9.08406 6.2495C9.17813 6.08437 9.33437 6 9.5 6C9.66563 6 9.82344 6.0835 9.91594 6.22266L13.9159 12.2227C14.0187 12.375 14.0281 12.5719 13.9406 12.7375Z" fill="#111827"/>
</svg>
