<svg width="14" height="16" viewBox="0 0 14 16" fill="none" xmlns="http://www.w3.org/2000/svg">
<g clip-path="url(#clip0_15_94)">
<path d="M14 15C14 15.5528 13.5528 16 13 16H1C0.447187 16 0 15.5528 0 15C0 14.4472 0.447187 14 1 14H13C13.5531 14 14 14.4469 14 15Z" fill="#111827"/>
<path opacity="0.4" d="M1.5 2.00031H2V7.00031C2 9.75719 4.24312 11.9722 7 11.9722C9.75688 11.9722 12 9.72906 12 7.00031V2.00031H12.5C13.0528 2.00031 13.5 1.55281 13.5 1.00031C13.5 0.447812 13.0528 0.0284375 12.5 0.0284375L9.5 0.0282844C8.94719 0.0282844 8.5 0.475784 8.5 1.02828C8.5 1.58078 8.94719 2.02828 9.5 2.02828H10V7.02828C10 8.68266 8.65437 10.0002 7 10.0002C5.34563 10.0002 4 8.62812 4 7V2H4.5C5.05281 2 5.5 1.55281 5.5 1C5.5 0.447187 5.05281 0 4.5 0L1.5 0.000153125C0.947187 0.000153125 0.5 0.447341 0.5 0.972028C0.5 1.49672 0.947187 2.00031 1.5 2.00031Z" fill="#111827"/>
</g>
<defs>
<clipPath id="clip0_15_94">
<rect width="14" height="16" fill="white"/>
</clipPath>
</defs>
</svg>
