<svg width="16" height="16" viewBox="0 0 16 16" fill="none" xmlns="http://www.w3.org/2000/svg">
<g clip-path="url(#clip0_15_75)">
<path d="M4.5125 6.5C4.5125 5.94687 4.95938 5.5 5.5125 5.5C6.0625 5.5 6.5125 5.94687 6.5125 6.5C6.5125 7.05313 6.0625 7.5 5.5125 7.5C4.95938 7.5 4.5125 7.05313 4.5125 6.5ZM9.5125 6.5C9.5125 5.94687 9.95938 5.5 10.5125 5.5C11.0625 5.5 11.5125 5.94687 11.5125 6.5C11.5125 7.05313 11.0625 7.5 10.5125 7.5C9.95938 7.5 9.5125 7.05313 9.5125 6.5Z" fill="#111827"/>
<path opacity="0.4" d="M0 8C0 3.58125 3.58125 0 8 0C12.4187 0 16 3.58125 16 8C16 12.4187 12.4187 16 8 16C3.58125 16 0 12.4187 0 8ZM5.12813 10.1719C4.94688 9.9625 4.63125 9.94062 4.42188 10.1219C4.2125 10.3031 4.19062 10.6188 4.37187 10.8281C5.06562 11.6281 6.27813 12.5 7.97188 12.5C9.72188 12.5 10.9313 11.6281 11.6281 10.8281C11.8094 10.6188 11.7875 10.3031 11.5781 10.1219C11.3688 9.94062 11.0531 9.9625 10.8719 10.1719C10.3094 10.8188 9.35625 11.5 7.97188 11.5C6.64375 11.5 5.6875 10.8188 5.12813 10.1719ZM5.5125 5.5C4.95937 5.5 4.5125 5.94687 4.5125 6.5C4.5125 7.05313 4.95937 7.5 5.5125 7.5C6.0625 7.5 6.5125 7.05313 6.5125 6.5C6.5125 5.94687 6.0625 5.5 5.5125 5.5ZM10.5125 7.5C11.0625 7.5 11.5125 7.05313 11.5125 6.5C11.5125 5.94687 11.0625 5.5 10.5125 5.5C9.95937 5.5 9.5125 5.94687 9.5125 6.5C9.5125 7.05313 9.95937 7.5 10.5125 7.5Z" fill="#111827"/>
</g>
<defs>
<clipPath id="clip0_15_75">
<rect width="16" height="16" fill="white"/>
</clipPath>
</defs>
</svg>
