<svg width="20" height="20" viewBox="0 0 20 20" fill="none" xmlns="http://www.w3.org/2000/svg">
<g clip-path="url(#clip0_14_2129)">
<path d="M14.8711 7.25776C15.0703 6.99604 15.0352 6.62495 14.7891 6.4062C14.543 6.18745 14.168 6.19917 13.9336 6.43354L6.94141 13.4257L6.43359 13.9335C6.31641 14.0507 6.25 14.2109 6.25 14.3749V14.6874V16.8749V18.7499C6.25 19.2656 6.56641 19.7265 7.04297 19.914C7.51953 20.1015 8.06641 19.9765 8.41797 19.5976L11.0938 16.707L8.75 15.7304V15.2109L14.8711 7.25776Z" fill="white"/>
<path opacity="0.4" d="M19.457 0.218777C19.8516 0.492215 20.0586 0.964871 19.9844 1.43753L17.4844 17.6875C17.4258 18.0664 17.1953 18.3985 16.8594 18.586C16.5234 18.7735 16.1211 18.7969 15.7656 18.6485L8.74999 15.7305V15.211L14.8711 7.25784C15.0742 6.99612 15.0351 6.61721 14.7812 6.40237C14.5273 6.18753 14.1523 6.20315 13.9219 6.44534L6.98436 13.6953L6.43358 14.2461C6.31639 14.3633 6.24999 14.5235 6.24999 14.6875L5.14452 14.2266L0.769519 12.4024C0.328113 12.2188 0.0312377 11.8047 0.00389396 11.3282C-0.0234498 10.8516 0.218738 10.4024 0.6328 10.1641L18.1328 0.16409C18.5508 -0.0741915 19.0664 -0.050754 19.4609 0.218777H19.457Z" fill="white"/>
</g>
<defs>
<clipPath id="clip0_14_2129">
<rect width="20" height="20" fill="white"/>
</clipPath>
</defs>
</svg>
