<svg width="16" height="16" viewBox="0 0 16 16" fill="none" xmlns="http://www.w3.org/2000/svg">
<path d="M0.5 2.25C0.5 1.83594 0.835938 1.5 1.25 1.5H2.75C3.16563 1.5 3.5 1.83594 3.5 2.25V3.75C3.5 4.16563 3.16563 4.5 2.75 4.5H1.25C0.835938 4.5 0.5 4.16563 0.5 3.75V2.25ZM0.5 7.25C0.5 6.83437 0.835938 6.5 1.25 6.5H2.75C3.16563 6.5 3.5 6.83437 3.5 7.25V8.75C3.5 9.16563 3.16563 9.5 2.75 9.5H1.25C0.835938 9.5 0.5 9.16563 0.5 8.75V7.25ZM2.75 11.5C3.16563 11.5 3.5 11.8344 3.5 12.25V13.75C3.5 14.1656 3.16563 14.5 2.75 14.5H1.25C0.835938 14.5 0.5 14.1656 0.5 13.75V12.25C0.5 11.8344 0.835938 11.5 1.25 11.5H2.75Z" fill="#111827"/>
<path opacity="0.4" d="M5 3C5 2.44781 5.44687 2 6 2H15C15.5531 2 16 2.44781 16 3C16 3.55313 15.5531 4 15 4H6C5.44687 4 5 3.55313 5 3ZM5 8C5 7.44687 5.44687 7 6 7H15C15.5531 7 16 7.44687 16 8C16 8.55313 15.5531 9 15 9H6C5.44687 9 5 8.55313 5 8ZM15 12C15.5531 12 16 12.4469 16 13C16 13.5531 15.5531 14 15 14H6C5.44687 14 5 13.5531 5 13C5 12.4469 5.44687 12 6 12H15Z" fill="#111827"/>
</svg>
