<svg width="12" height="16" viewBox="0 0 12 16" fill="none" xmlns="http://www.w3.org/2000/svg">
<path opacity="0.4" d="M10.0344 7.575C10.6281 6.87812 11 5.9875 11 5C11 2.79406 9.20563 1 7 1L1 1.00031C0.447812 1.00031 0 1.4475 0 2.00031C0 2.55313 0.447812 3.00031 1 3.00031H1.5V13.0003H1C0.447812 13.0003 0 13.4475 0 14.0003C0 14.5531 0.447812 15.0003 1 15.0003H8C10.2056 15.0003 12 13.2063 12 11.0003C12 9.54063 11.2063 8.275 10.0344 7.575ZM3.5 3.00031H7C8.10312 3.00031 9 3.89781 9 5.00031C9 6.10281 8.10312 7.00031 7 7.00031H3.5V3.00031ZM8 13H3.5V9H8C9.10312 9 10 9.89719 10 10.9719C10 12.0466 9.10312 13 8 13Z" fill="#111827"/>
</svg>
