<svg width="14" height="16" viewBox="0 0 14 16" fill="none" xmlns="http://www.w3.org/2000/svg">
<path d="M1 15C0.447812 15 0 14.5531 0 14C0 13.4469 0.447812 13 1 13H13C13.5531 13 14 13.4469 14 14C14 14.5531 13.5531 15 13 15H1ZM1 7C0.447812 7 0 6.55313 0 6C0 5.44687 0.447812 5 1 5H13C13.5531 5 14 5.44687 14 6C14 6.55313 13.5531 7 13 7H1Z" fill="#111827"/>
<path opacity="0.4" d="M6 11C5.44687 11 5 10.5531 5 10C5 9.44687 5.44687 9 6 9H13C13.5531 9 14 9.44687 14 10C14 10.5531 13.5531 11 13 11H6ZM6 3C5.44687 3 5 2.55219 5 2C5 1.44781 5.44687 1 6 1H13C13.5531 1 14 1.44781 14 2C14 2.55219 13.5531 3 13 3H6Z" fill="#111827"/>
</svg>
