<svg width="20" height="16" viewBox="0 0 20 16" fill="none" xmlns="http://www.w3.org/2000/svg">
<g clip-path="url(#clip0_15_54)">
<path d="M1.88156 14.025C0.116903 12.2594 0.116903 9.3969 1.88156 7.6344L5.39062 4.0969C7.12812 2.35971 10.0156 2.35971 11.7531 4.0969C13.3156 5.6594 13.5469 8.15002 12.2625 9.9469L12.2281 9.9969C11.9062 10.4438 11.2812 10.55 10.8344 10.2281C10.3844 9.90627 10.2781 9.28127 10.6 8.8344L10.6344 8.7844C11.35 7.78127 11.2375 6.4094 10.3656 5.53752C9.38437 4.55627 7.7875 4.55627 6.80312 5.53752L3.29687 9.0469C2.31218 10.0031 2.31218 11.625 3.29687 12.6094C4.16562 13.4813 5.54062 13.5938 6.54062 12.8781L6.59062 12.8156C7.04062 12.5219 7.66562 12.625 7.98437 13.075C8.30625 13.525 8.20312 14.15 7.75312 14.4719L7.70312 14.5063C5.87812 15.7906 3.44375 15.5844 1.88156 14.025Z" fill="#111827"/>
<path opacity="0.4" d="M18.1187 1.97625C19.8844 3.74063 19.8844 6.60313 18.1187 8.36563L14.6094 11.875C12.8437 13.6406 9.98437 13.6406 8.21875 11.875C6.65625 10.3125 6.45312 7.85 7.7375 6.05313L7.77187 6.00313C8.06562 5.55625 8.69062 5.45 9.16562 5.77188C9.61562 6.06563 9.72187 6.69063 9.4 7.16563L9.36562 7.21563C8.65 8.19063 8.7625 9.59063 9.63437 10.4625C10.6156 11.4438 12.2125 11.4438 13.1969 10.4625L16.7031 6.95313C17.6875 5.96875 17.6875 4.34688 16.7031 3.39063C15.8344 2.51969 14.4594 2.40594 13.4594 3.12188L13.4094 3.15625C12.9594 3.47813 12.3344 3.34688 12.0156 2.92438C11.6937 2.475 11.7969 1.85031 12.2469 1.52938L12.2969 1.49438C14.0937 0.210344 16.5562 0.414063 18.1187 1.97625Z" fill="#111827"/>
</g>
<defs>
<clipPath id="clip0_15_54">
<rect width="20" height="16" fill="white"/>
</clipPath>
</defs>
</svg>
