<svg width="14" height="16" viewBox="0 0 14 16" fill="none" xmlns="http://www.w3.org/2000/svg">
<path d="M1 15C0.447812 15 0 14.5531 0 14C0 13.4469 0.447812 13 1 13H13C13.5531 13 14 13.4469 14 14C14 14.5531 13.5531 15 13 15H1ZM1 7C0.447812 7 0 6.55313 0 6C0 5.44687 0.447812 5 1 5H13C13.5531 5 14 5.44687 14 6C14 6.55313 13.5531 7 13 7H1Z" fill="#111827"/>
<path opacity="0.4" d="M1 11C0.447812 11 0 10.5531 0 10C0 9.44687 0.447812 9 1 9H8C8.55313 9 9 9.44687 9 10C9 10.5531 8.55313 11 8 11H1ZM1 3C0.447812 3 0 2.55219 0 2C0 1.44781 0.447812 1 1 1H8C8.55313 1 9 1.44781 9 2C9 2.55219 8.55313 3 8 3H1Z" fill="#111827"/>
</svg>
