<svg width="14" height="16" viewBox="0 0 14 16" fill="none" xmlns="http://www.w3.org/2000/svg">
<path opacity="0.4" d="M13 13H12.1934L7.90938 1.64875C7.76288 1.25906 7.39156 1 6.97469 1C6.55781 1 6.18281 1.25903 6.03656 1.64875L1.80656 13H1C0.447812 13 0 13.4472 0 14C0 14.5528 0.447812 15 1 15H4C4.55219 15 5 14.5528 5 14C5 13.4472 4.55219 13 4 13H3.94375L4.47813 11.5H9.46562L10 13C9.44781 13 9 13.4472 9 14C9 14.5528 9.44781 15 10 15H13C13.5522 15 14 14.5528 14 14C14 13.4472 13.5531 13 13 13ZM5.25625 9.5L7 4.84688L8.74438 9.5H5.25625Z" fill="#111827"/>
</svg>
