<svg width="12" height="16" viewBox="0 0 12 16" fill="none" xmlns="http://www.w3.org/2000/svg">
<path opacity="0.4" d="M12 2.00031C12 2.55312 11.5528 3.00031 11 3.00031H9.16656L5.00094 13.0003H7C7.55281 13.0003 8 13.4475 8 14.0003C8 14.5531 7.55281 15.0003 7 15.0003H1C0.447187 15.0003 0 14.5531 0 14.0003C0 13.4475 0.447187 13.0003 1 13.0003H2.83344L6.99906 3.00031H5C4.44719 3.00031 4 2.55312 4 2.00031C4 1.44749 4.44719 1.00031 5 1.00031H11C11.5531 1.00031 12 1.44781 12 2.00031Z" fill="#111827"/>
</svg>
