<svg width="14" height="16" viewBox="0 0 14 16" fill="none" xmlns="http://www.w3.org/2000/svg">
<g clip-path="url(#clip0_15_105)">
<path d="M1 15C0.447812 15 0 14.5531 0 14C0 13.4469 0.447812 13 1 13H13C13.5531 13 14 13.4469 14 14C14 14.5531 13.5531 15 13 15H1ZM1 7C0.447812 7 0 6.55313 0 6C0 5.44687 0.447812 5 1 5H13C13.5531 5 14 5.44687 14 6C14 6.55313 13.5531 7 13 7H1Z" fill="#111827"/>
<path opacity="0.4" d="M4 11C3.44687 11 3 10.5531 3 10C3 9.44687 3.44687 9 4 9H10C10.5531 9 11 9.44687 11 10C11 10.5531 10.5531 11 10 11H4ZM4 3C3.44687 3 3 2.55219 3 2C3 1.44781 3.44687 1 4 1H10C10.5531 1 11 1.44781 11 2C11 2.55219 10.5531 3 10 3H4Z" fill="#111827"/>
<path d="M1 15C0.447812 15 0 14.5531 0 14C0 13.4469 0.447812 13 1 13H13C13.5531 13 14 13.4469 14 14C14 14.5531 13.5531 15 13 15H1ZM1 7C0.447812 7 0 6.55313 0 6C0 5.44687 0.447812 5 1 5H13C13.5531 5 14 5.44687 14 6C14 6.55313 13.5531 7 13 7H1Z" fill="#111827"/>
<path opacity="0.4" d="M4 11C3.44687 11 3 10.5531 3 10C3 9.44687 3.44687 9 4 9H10C10.5531 9 11 9.44687 11 10C11 10.5531 10.5531 11 10 11H4ZM4 3C3.44687 3 3 2.55219 3 2C3 1.44781 3.44687 1 4 1H10C10.5531 1 11 1.44781 11 2C11 2.55219 10.5531 3 10 3H4Z" fill="#111827"/>
</g>
<defs>
<clipPath id="clip0_15_105">
<rect width="14" height="16" fill="white"/>
</clipPath>
</defs>
</svg>
