<svg width="20" height="20" viewBox="0 0 20 20" fill="none" xmlns="http://www.w3.org/2000/svg">
<g clip-path="url(#clip0_14_2076)">
<path d="M16.875 1C18.6008 1 20 2.35924 20 4.03571C20 5.71295 18.6008 7.07143 16.875 7.07143C15.1484 7.07143 13.75 5.71295 13.75 4.03571C13.75 2.35924 15.1484 1 16.875 1ZM15.9375 4.03571C15.9375 4.5385 16.3574 4.94643 16.875 4.94643C17.3926 4.94643 17.8125 4.5385 17.8125 4.03571C17.8125 3.53292 17.3926 3.125 16.875 3.125C16.3574 3.125 15.9375 3.53292 15.9375 4.03571ZM16.875 11.9286C18.6008 11.9286 20 13.2871 20 14.9643C20 16.6415 18.6008 18 16.875 18C15.1484 18 13.75 16.6415 13.75 14.9643C13.75 13.2871 15.1484 11.9286 16.875 11.9286ZM15.9375 14.9643C15.9375 15.469 16.3574 15.875 16.875 15.875C17.3926 15.875 17.8125 15.469 17.8125 14.9643C17.8125 14.4596 17.3926 14.0536 16.875 14.0536C16.3574 14.0536 15.9375 14.4596 15.9375 14.9643ZM3.125 12.5357C1.39844 12.5357 -4.44861e-07 11.1772 -3.71547e-07 9.5C-2.98233e-07 7.82277 1.39844 6.46428 3.125 6.46429C4.85156 6.46429 6.25 7.82277 6.25 9.5C6.25 11.1772 4.85156 12.5357 3.125 12.5357ZM4.0625 9.5C4.0625 8.99531 3.64453 8.58929 3.125 8.58929C2.60547 8.58929 2.1875 8.99531 2.1875 9.5C2.1875 10.0047 2.60547 10.4107 3.125 10.4107C3.64453 10.4107 4.0625 10.0047 4.0625 9.5Z" fill="#111827"/>
<path opacity="0.4" d="M12.5 5.24998C11.8086 5.24998 11.25 5.79262 11.25 6.46427L11.25 12.5357C11.25 13.2073 11.8086 13.75 12.5 13.75L14.0117 13.75C13.8437 14.1219 13.75 14.5317 13.75 14.9643C13.75 15.3969 13.8437 15.8067 14.0117 16.1786L12.5 16.1786C10.4297 16.1786 8.75 14.5469 8.75 12.5357L8.75 10.7143L5.98828 10.7143C6.15625 10.3424 6.25 9.93257 6.25 9.49998C6.25 9.06739 6.15625 8.65757 5.98828 8.2857L8.75 8.2857L8.75 6.46427C8.75 4.45235 10.4297 2.82141 12.5 2.82141L14.0117 2.82141C13.8437 3.19329 13.75 3.60387 13.75 4.0357C13.75 4.46753 13.8437 4.87811 14.0117 5.24998L12.5 5.24998Z" fill="#111827"/>
</g>
<defs>
<clipPath id="clip0_14_2076">
<rect width="20" height="20" fill="white" transform="translate(20) rotate(90)"/>
</clipPath>
</defs>
</svg>
