<svg width="24" height="24" viewBox="0 0 24 24" fill="none" xmlns="http://www.w3.org/2000/svg">
<path opacity="0.4" d="M24 12C24 13.0206 23.1733 13.8467 22.1538 13.8467H13.8462V22.1544C13.8462 23.175 13.0194 24 12 24C10.9806 24 10.1538 23.175 10.1538 22.1544V13.8467H1.84615C0.826731 13.8467 0 13.0206 0 12C0 10.9794 0.826731 10.1544 1.84615 10.1544H10.1538V1.84673C10.1538 0.826154 10.9806 0 12 0C13.0194 0 13.8462 0.826154 13.8462 1.84673V10.1544H22.1538C23.175 10.1538 24 10.9788 24 12Z" fill="#111827"/>
</svg>
